<svg width="25" height="24" viewBox="0 0 25 24" fill="none" xmlns="http://www.w3.org/2000/svg">
<path d="M7.92078 5.3501C8.55978 5.3501 9.15078 5.4001 9.69078 5.5481C10.2318 5.6471 10.6748 5.8451 11.0678 6.0921C11.4618 6.33943 11.7568 6.68576 11.9528 7.1311C12.1498 7.5761 12.2488 8.1211 12.2488 8.7141C12.2488 9.4071 12.1008 10.0001 11.7568 10.4451C11.4618 10.8911 10.9698 11.2861 10.3798 11.5831C11.2158 11.8311 11.8548 12.2761 12.2488 12.8691C12.6428 13.4621 12.8878 14.2051 12.8878 15.0461C12.8878 15.7391 12.7398 16.3321 12.4938 16.8271C12.2488 17.3221 11.8548 17.7671 11.4118 18.0641C10.9304 18.3821 10.3985 18.6161 9.83878 18.7561C9.24878 18.9051 8.65878 19.0041 8.06878 19.0041H1.47778V5.3501H7.92078ZM7.52678 10.8901C8.06778 10.8901 8.51078 10.7421 8.85478 10.4951C9.19878 10.2481 9.34678 9.8021 9.34678 9.2581C9.34678 8.9611 9.29678 8.6641 9.19878 8.4671C9.10078 8.2701 8.95278 8.1201 8.75678 7.9721C8.55638 7.85954 8.34084 7.77636 8.11678 7.7251C7.87078 7.6751 7.62578 7.6751 7.32978 7.6751H4.47778V10.8911L7.52678 10.8901ZM7.67478 16.7281C7.96978 16.7281 8.26478 16.6781 8.51078 16.6291C8.75678 16.5791 9.00278 16.4811 9.19878 16.3321C9.39838 16.1865 9.56586 16.0013 9.69078 15.7881C9.78878 15.5411 9.88778 15.2441 9.88778 14.8981C9.88778 14.2051 9.69078 13.7101 9.29778 13.3641C8.90378 13.0671 8.36278 12.9191 7.72378 12.9191H4.47778V16.7291L7.67478 16.7281ZM17.1668 16.6781C17.5601 17.0741 18.1501 17.2721 18.9368 17.2721C19.4778 17.2721 19.9698 17.1241 20.3628 16.8771C20.7568 16.5798 21.0028 16.2828 21.1008 15.9861H23.5108C23.1168 17.1731 22.5268 18.0141 21.7408 18.5581C20.9528 19.0531 20.0188 19.3501 18.8878 19.3501C18.1643 19.3512 17.4469 19.2169 16.7728 18.9541C16.1659 18.7278 15.625 18.3538 15.1988 17.8661C14.7411 17.4114 14.4033 16.8504 14.2158 16.2331C13.9698 15.5901 13.8708 14.8981 13.8708 14.1061C13.8708 13.3641 13.9698 12.6721 14.2158 12.0281C14.4518 11.4077 14.8022 10.8371 15.2488 10.3461C15.6908 9.9011 16.2318 9.5061 16.8218 9.2581C17.4786 8.9944 18.1801 8.85994 18.8878 8.8621C19.7238 8.8621 20.4618 9.0111 21.1008 9.3571C21.7408 9.7031 22.2318 10.0991 22.6248 10.6931C23.0188 11.2371 23.3148 11.8801 23.5108 12.5731C23.6088 13.2651 23.6578 13.9581 23.6088 14.7491H16.4778C16.4778 15.5411 16.7728 16.2831 17.1668 16.6791M20.2648 11.4851C19.9208 11.1391 19.3798 10.9411 18.7398 10.9411C18.3645 10.9355 17.9934 11.0202 17.6578 11.1881C17.3628 11.3371 17.1668 11.5351 16.9698 11.7331C16.7876 11.9236 16.6677 12.1649 16.6258 12.4251C16.5758 12.6731 16.5268 12.8701 16.5268 13.0681H20.9528C20.8548 12.3261 20.6088 11.8321 20.2648 11.4851ZM15.9368 6.2901H21.4448V7.6261H15.9378L15.9368 6.2901Z" fill="#F6EFDD"/>
</svg>
