<svg width="19" height="18" viewBox="0 0 19 18" fill="none" xmlns="http://www.w3.org/2000/svg">
<path d="M14.2871 3.21362C13.7041 3.21362 13.2315 3.68624 13.2315 4.26874C13.2315 4.85175 13.7041 5.32436 14.2871 5.32436C14.8696 5.32436 15.3422 4.85175 15.3422 4.26874C15.3422 3.68624 14.8696 3.21362 14.2871 3.21362Z" fill="#F6EFDD"/>
<path d="M9.59539 11.8392C8.02951 11.8392 6.75562 10.5654 6.75562 8.99999C6.75562 7.43411 8.02951 6.16025 9.59539 6.16025C11.1608 6.16025 12.4346 7.43411 12.4346 8.99999C12.4346 10.5654 11.1608 11.8392 9.59539 11.8392ZM9.59539 4.56689C7.15093 4.56689 5.16229 6.55553 5.16229 8.99999C5.16229 11.4439 7.15093 13.4326 9.59539 13.4326C12.0393 13.4326 14.028 11.4439 14.028 8.99999C14.028 6.55553 12.0393 4.56689 9.59539 4.56689Z" fill="#F6EFDD"/>
<path d="M5.92841 1.69357C3.88076 1.69357 2.21516 3.35917 2.21516 5.40682V12.5932C2.21516 14.6408 3.88076 16.3064 5.92841 16.3064H13.1148C15.1624 16.3064 16.8285 14.6408 16.8285 12.5932V5.40682C16.8285 3.35917 15.1624 1.69357 13.1148 1.69357H5.92841ZM13.1148 18H5.92841C2.94672 18 0.522095 15.5744 0.522095 12.5932V5.40682C0.522095 2.42513 2.94672 0 5.92841 0H13.1148C16.0959 0 18.5216 2.42513 18.5216 5.40682V12.5932C18.5216 15.5744 16.0959 18 13.1148 18Z" fill="#F6EFDD"/>
</svg>
