<svg width="19" height="18" viewBox="0 0 19 18" fill="none" xmlns="http://www.w3.org/2000/svg">
<path d="M5.60197 14.8997L5.90671 15.0813C7.02544 15.7478 8.29834 16.1003 9.58699 16.1003C13.5629 16.1003 16.797 12.8662 16.797 8.89036C16.797 4.91501 13.5629 1.6804 9.58699 1.6804C5.61215 1.6804 2.37703 4.91501 2.37703 8.89036C2.37703 10.2029 2.74178 11.4957 3.43215 12.6286L3.61887 12.9354L2.89847 15.6241L5.60197 14.8997ZM0.521606 18L1.8118 13.1857C1.08123 11.867 0.69714 10.3902 0.69714 8.89036C0.69714 3.98858 4.6847 0 9.58699 0C14.4893 0 18.4779 3.98858 18.4779 8.89036C18.4779 13.7927 14.4893 17.7812 9.58699 17.7812C8.1157 17.7812 6.66219 17.4093 5.36132 16.7042L0.521606 18Z" fill="#F6EFDD"/>
<path fill-rule="evenodd" clip-rule="evenodd" d="M12.894 10.1271C12.5277 9.90788 12.0521 9.66368 11.6206 9.8397C11.2905 9.97554 11.0793 10.4934 10.8646 10.7575C10.7547 10.8933 10.6235 10.9142 10.4546 10.8465C9.21325 10.3515 8.2619 9.52275 7.57662 8.38112C7.46063 8.20357 7.48146 8.06367 7.62137 7.89934C7.82843 7.65565 8.0884 7.37889 8.14437 7.05024C8.20033 6.7221 8.0462 6.3385 7.91036 6.04546C7.73688 5.67204 7.54304 5.13939 7.16861 4.92775C6.82469 4.73341 6.37139 4.84227 6.06513 5.09156C5.53603 5.52298 5.28062 6.19759 5.28825 6.8671C5.2908 7.05737 5.3142 7.24713 5.35846 7.43028C5.4653 7.87136 5.6688 8.28395 5.89876 8.67518C6.07173 8.97076 6.25997 9.2577 6.46296 9.53344C7.12688 10.4355 7.95309 11.2194 8.90954 11.8055C9.38776 12.098 9.90208 12.355 10.4353 12.531C11.033 12.7284 11.5657 12.9339 12.2113 12.8113C12.8869 12.6831 13.5539 12.2649 13.822 11.6137C13.9014 11.4204 13.941 11.2057 13.8968 11.0022C13.8047 10.5809 13.2349 10.3306 12.894 10.1271Z" fill="#F6EFDD"/>
</svg>
